<svg width="197" height="30" viewBox="0 0 197 30" fill="none" xmlns="http://www.w3.org/2000/svg">
<path d="M10.4 29.32C9.06667 29.32 7.8 29.2 6.6 28.96C5.4 28.72 4.28 28.3733 3.24 27.92C2.22667 27.4667 1.30667 26.9067 0.48 26.24C0.293333 26.08 0.16 25.9067 0.08 25.72C0.0266667 25.5333 0.0266667 25.36 0.08 25.2C0.16 25.0133 0.266667 24.8667 0.4 24.76C0.533334 24.6533 0.693334 24.6 0.88 24.6C1.06667 24.6 1.25333 24.68 1.44 24.84C2.69333 25.8267 4.01333 26.5467 5.4 27C6.81333 27.4533 8.48 27.68 10.4 27.68C13.0667 27.68 15.0667 27.1467 16.4 26.08C17.76 25.0133 18.44 23.6 18.44 21.84C18.44 20.4 17.9467 19.28 16.96 18.48C15.9733 17.6533 14.36 17.0133 12.12 16.56L8.16 15.76C5.65333 15.2533 3.78667 14.4133 2.56 13.24C1.33333 12.0667 0.72 10.48 0.72 8.48C0.72 7.28 0.946667 6.2 1.4 5.24C1.88 4.25333 2.54667 3.41333 3.4 2.72C4.25333 2 5.26667 1.45333 6.44 1.08C7.61333 0.679998 8.90667 0.479998 10.32 0.479998C12.08 0.479998 13.6933 0.746665 15.16 1.28C16.6267 1.78667 17.96 2.58667 19.16 3.68C19.3467 3.84 19.4667 4.02667 19.52 4.24C19.5733 4.42667 19.56 4.61333 19.48 4.8C19.4267 4.96 19.3333 5.09333 19.2 5.2C19.0933 5.28 18.9467 5.32 18.76 5.32C18.5733 5.32 18.3867 5.22667 18.2 5.04C17.0533 4.02667 15.84 3.29333 14.56 2.84C13.28 2.36 11.8667 2.12 10.32 2.12C8.74667 2.12 7.37333 2.38667 6.2 2.92C5.02667 3.42667 4.10667 4.16 3.44 5.12C2.8 6.08 2.48 7.2 2.48 8.48C2.48 10.0267 2.93333 11.2533 3.84 12.16C4.74667 13.04 6.21333 13.68 8.24 14.08L12.2 14.88C14.92 15.44 16.9333 16.2667 18.24 17.36C19.5467 18.4267 20.2 19.9067 20.2 21.8C20.2 22.92 19.9733 23.9467 19.52 24.88C19.0667 25.7867 18.4133 26.5733 17.56 27.24C16.7333 27.9067 15.7067 28.4267 14.48 28.8C13.28 29.1467 11.92 29.32 10.4 29.32ZM31.2244 29.32C29.971 29.32 28.8377 29.0667 27.8244 28.56C26.811 28.0533 26.011 27.3733 25.4244 26.52C24.8377 25.64 24.5444 24.6667 24.5444 23.6C24.5444 22.16 24.891 21.04 25.5844 20.24C26.3044 19.4133 27.5177 18.84 29.2244 18.52C30.9577 18.1733 33.331 18 36.3444 18H37.9844V19.48H36.4244C33.7844 19.48 31.731 19.6 30.2644 19.84C28.8244 20.0533 27.811 20.4533 27.2244 21.04C26.6644 21.6 26.3844 22.4 26.3844 23.44C26.3844 24.72 26.8244 25.7733 27.7044 26.6C28.611 27.4 29.8244 27.8 31.3444 27.8C32.571 27.8 33.6377 27.5067 34.5444 26.92C35.4777 26.3067 36.211 25.4933 36.7444 24.48C37.2777 23.44 37.5444 22.2667 37.5444 20.96V16.4C37.5444 14.48 37.171 13.08 36.4244 12.2C35.6777 11.32 34.4777 10.88 32.8244 10.88C31.7577 10.88 30.731 11.0267 29.7444 11.32C28.7844 11.6133 27.771 12.0667 26.7044 12.68C26.4644 12.8133 26.251 12.8667 26.0644 12.84C25.9044 12.8133 25.771 12.7467 25.6644 12.64C25.5577 12.5067 25.4777 12.36 25.4244 12.2C25.3977 12.0133 25.411 11.84 25.4644 11.68C25.5444 11.52 25.6777 11.3867 25.8644 11.28C26.9577 10.6133 28.091 10.12 29.2644 9.8C30.4377 9.48 31.5977 9.32 32.7444 9.32C34.211 9.32 35.4244 9.57333 36.3844 10.08C37.3444 10.5867 38.051 11.36 38.5044 12.4C38.9844 13.44 39.2244 14.7733 39.2244 16.4V28.36C39.2244 28.6267 39.1577 28.84 39.0244 29C38.891 29.16 38.691 29.24 38.4244 29.24C38.1577 29.24 37.9444 29.16 37.7844 29C37.651 28.84 37.5844 28.6267 37.5844 28.36V24.16H38.0244C37.7577 25.2267 37.3044 26.1467 36.6644 26.92C36.0244 27.6933 35.2377 28.2933 34.3044 28.72C33.3977 29.12 32.371 29.32 31.2244 29.32ZM46.7713 29.12C46.5046 29.12 46.2913 29.04 46.1313 28.88C45.9979 28.72 45.9313 28.5067 45.9313 28.24V10.4C45.9313 10.1067 45.9979 9.89333 46.1313 9.76C46.2913 9.6 46.5046 9.52 46.7713 9.52C47.0379 9.52 47.2379 9.6 47.3713 9.76C47.5313 9.89333 47.6113 10.1067 47.6113 10.4V28.24C47.6113 28.5067 47.5446 28.72 47.4113 28.88C47.2779 29.04 47.0646 29.12 46.7713 29.12ZM46.7713 4.36C46.3446 4.36 45.9979 4.24 45.7313 4C45.4913 3.73333 45.3713 3.38667 45.3713 2.96C45.3713 2.50667 45.4913 2.17333 45.7313 1.96C45.9979 1.72 46.3446 1.6 46.7713 1.6C47.2246 1.6 47.5713 1.72 47.8112 1.96C48.0513 2.17333 48.1713 2.50667 48.1713 2.96C48.1713 3.38667 48.0513 3.73333 47.8112 4C47.5713 4.24 47.2246 4.36 46.7713 4.36ZM55.2478 29.24C54.9811 29.24 54.7678 29.16 54.6078 29C54.4745 28.84 54.4078 28.6267 54.4078 28.36V1.44C54.4078 1.14667 54.4745 0.933331 54.6078 0.799998C54.7678 0.639999 54.9811 0.559999 55.2478 0.559999C55.5145 0.559999 55.7145 0.639999 55.8478 0.799998C56.0078 0.933331 56.0878 1.14667 56.0878 1.44V18.6H56.1678L65.8078 10C66.0211 9.81333 66.2211 9.66667 66.4078 9.56C66.5945 9.45333 66.8211 9.4 67.0878 9.4C67.3011 9.4 67.4745 9.46667 67.6078 9.6C67.7411 9.70667 67.7945 9.85333 67.7678 10.04C67.7678 10.2267 67.6611 10.4267 67.4478 10.64L57.1678 19.76V18.32L68.3278 27.84C68.5945 28.0533 68.7411 28.2667 68.7678 28.48C68.7945 28.6933 68.7411 28.8667 68.6078 29C68.5011 29.16 68.3411 29.24 68.1278 29.24C67.8878 29.24 67.6745 29.1867 67.4878 29.08C67.3278 28.9733 67.1011 28.8 66.8078 28.56L56.1678 19.52H56.0878V28.36C56.0878 28.9467 55.8078 29.24 55.2478 29.24ZM78.7634 29.32C77.5101 29.32 76.3768 29.0667 75.3634 28.56C74.3501 28.0533 73.5501 27.3733 72.9634 26.52C72.3768 25.64 72.0834 24.6667 72.0834 23.6C72.0834 22.16 72.4301 21.04 73.1234 20.24C73.8434 19.4133 75.0568 18.84 76.7634 18.52C78.4968 18.1733 80.8701 18 83.8834 18H85.5234V19.48H83.9634C81.3234 19.48 79.2701 19.6 77.8034 19.84C76.3634 20.0533 75.3501 20.4533 74.7634 21.04C74.2034 21.6 73.9234 22.4 73.9234 23.44C73.9234 24.72 74.3634 25.7733 75.2434 26.6C76.1501 27.4 77.3634 27.8 78.8834 27.8C80.1101 27.8 81.1768 27.5067 82.0834 26.92C83.0168 26.3067 83.7501 25.4933 84.2834 24.48C84.8168 23.44 85.0834 22.2667 85.0834 20.96V16.4C85.0834 14.48 84.7101 13.08 83.9634 12.2C83.2168 11.32 82.0168 10.88 80.3634 10.88C79.2968 10.88 78.2701 11.0267 77.2834 11.32C76.3234 11.6133 75.3101 12.0667 74.2434 12.68C74.0034 12.8133 73.7901 12.8667 73.6034 12.84C73.4434 12.8133 73.3101 12.7467 73.2034 12.64C73.0968 12.5067 73.0168 12.36 72.9634 12.2C72.9368 12.0133 72.9501 11.84 73.0034 11.68C73.0834 11.52 73.2168 11.3867 73.4034 11.28C74.4968 10.6133 75.6301 10.12 76.8034 9.8C77.9768 9.48 79.1368 9.32 80.2834 9.32C81.7501 9.32 82.9634 9.57333 83.9234 10.08C84.8834 10.5867 85.5901 11.36 86.0434 12.4C86.5234 13.44 86.7634 14.7733 86.7634 16.4V28.36C86.7634 28.6267 86.6968 28.84 86.5634 29C86.4301 29.16 86.2301 29.24 85.9634 29.24C85.6968 29.24 85.4834 29.16 85.3234 29C85.1901 28.84 85.1234 28.6267 85.1234 28.36V24.16H85.5634C85.2968 25.2267 84.8434 26.1467 84.2034 26.92C83.5634 27.6933 82.7768 28.2933 81.8434 28.72C80.9368 29.12 79.9101 29.32 78.7634 29.32ZM100.27 29.32C98.937 29.32 97.817 29.0667 96.9103 28.56C96.0036 28.0267 95.3236 27.28 94.8703 26.32C94.417 25.3333 94.1903 24.1467 94.1903 22.76V11.08H90.9503C90.6836 11.08 90.4703 11.0133 90.3103 10.88C90.1503 10.7467 90.0703 10.5733 90.0703 10.36C90.0703 10.1467 90.1503 9.97333 90.3103 9.84C90.4703 9.70667 90.6836 9.64 90.9503 9.64H94.1903V4.24C94.1903 3.94666 94.257 3.73333 94.3903 3.6C94.5503 3.44 94.7636 3.36 95.0303 3.36C95.297 3.36 95.497 3.44 95.6303 3.6C95.7903 3.73333 95.8703 3.94666 95.8703 4.24V9.64H101.59C101.884 9.64 102.097 9.70667 102.23 9.84C102.39 9.97333 102.47 10.1467 102.47 10.36C102.47 10.5733 102.39 10.7467 102.23 10.88C102.097 11.0133 101.884 11.08 101.59 11.08H95.8703V22.4C95.8703 24.1333 96.217 25.4667 96.9103 26.4C97.6036 27.3067 98.7636 27.76 100.39 27.76C100.95 27.76 101.404 27.7067 101.75 27.6C102.124 27.4667 102.43 27.4 102.67 27.4C102.83 27.4 102.964 27.4667 103.07 27.6C103.204 27.7333 103.27 27.92 103.27 28.16C103.27 28.2933 103.23 28.44 103.15 28.6C103.097 28.7333 102.977 28.8267 102.79 28.88C102.524 28.9867 102.137 29.08 101.63 29.16C101.15 29.2667 100.697 29.32 100.27 29.32Z" fill="white"/>
<path d="M117.447 29C117.18 29 116.967 28.92 116.807 28.76C116.647 28.6 116.567 28.3867 116.567 28.12V1.44C116.567 1.14667 116.633 0.933331 116.767 0.799998C116.927 0.639999 117.14 0.559999 117.407 0.559999C117.673 0.559999 117.873 0.639999 118.007 0.799998C118.167 0.933331 118.247 1.14667 118.247 1.44V27.44H132.647C132.94 27.44 133.153 27.5067 133.287 27.64C133.447 27.7733 133.527 27.96 133.527 28.2C133.527 28.4667 133.447 28.6667 133.287 28.8C133.153 28.9333 132.94 29 132.647 29H117.447ZM144.385 29.32C142.625 29.32 141.092 28.9067 139.785 28.08C138.505 27.2533 137.505 26.0933 136.785 24.6C136.092 23.1067 135.745 21.3467 135.745 19.32C135.745 17.8 135.945 16.4267 136.345 15.2C136.745 13.9733 137.318 12.92 138.065 12.04C138.838 11.16 139.758 10.4933 140.825 10.04C141.892 9.56 143.078 9.32 144.385 9.32C146.145 9.32 147.665 9.73333 148.945 10.56C150.252 11.3867 151.252 12.5467 151.945 14.04C152.665 15.5333 153.025 17.2933 153.025 19.32C153.025 20.84 152.825 22.2133 152.425 23.44C152.025 24.6667 151.438 25.72 150.665 26.6C149.918 27.48 149.012 28.16 147.945 28.64C146.905 29.0933 145.718 29.32 144.385 29.32ZM144.385 27.76C145.798 27.76 147.025 27.4267 148.065 26.76C149.105 26.0933 149.905 25.1333 150.465 23.88C151.025 22.6 151.305 21.08 151.305 19.32C151.305 16.6533 150.678 14.5867 149.425 13.12C148.198 11.6267 146.518 10.88 144.385 10.88C142.972 10.88 141.745 11.2133 140.705 11.88C139.665 12.5467 138.865 13.5067 138.305 14.76C137.745 16.0133 137.465 17.5333 137.465 19.32C137.465 21.9867 138.092 24.0667 139.345 25.56C140.598 27.0267 142.278 27.76 144.385 27.76ZM165.868 29.32C164.135 29.32 162.615 28.92 161.308 28.12C160.028 27.2933 159.028 26.1333 158.308 24.64C157.615 23.12 157.268 21.3467 157.268 19.32C157.268 17.2667 157.615 15.4933 158.308 14C159.002 12.5067 159.988 11.36 161.268 10.56C162.575 9.73333 164.108 9.32 165.868 9.32C167.735 9.32 169.322 9.8 170.628 10.76C171.935 11.72 172.802 13.0267 173.228 14.68H172.788V1.44C172.788 1.14667 172.855 0.933331 172.988 0.799998C173.148 0.639999 173.362 0.559999 173.628 0.559999C173.895 0.559999 174.095 0.639999 174.228 0.799998C174.388 0.933331 174.468 1.14667 174.468 1.44V28.36C174.468 28.6267 174.388 28.84 174.228 29C174.095 29.16 173.895 29.24 173.628 29.24C173.362 29.24 173.148 29.16 172.988 29C172.855 28.84 172.788 28.6267 172.788 28.36V23.96H173.228C172.802 25.5867 171.935 26.8933 170.628 27.88C169.322 28.84 167.735 29.32 165.868 29.32ZM165.908 27.76C167.322 27.76 168.548 27.4267 169.588 26.76C170.628 26.0933 171.428 25.1333 171.988 23.88C172.548 22.6 172.828 21.08 172.828 19.32C172.828 16.6533 172.202 14.5867 170.948 13.12C169.722 11.6267 168.042 10.88 165.908 10.88C164.495 10.88 163.268 11.2133 162.228 11.88C161.188 12.5467 160.388 13.5067 159.828 14.76C159.268 16.0133 158.988 17.5333 158.988 19.32C158.988 21.9867 159.615 24.0667 160.868 25.56C162.122 27.0267 163.802 27.76 165.908 27.76ZM182.123 29.24C181.856 29.24 181.643 29.16 181.483 29C181.349 28.84 181.283 28.6267 181.283 28.36V1.44C181.283 1.14667 181.349 0.933331 181.483 0.799998C181.643 0.639999 181.856 0.559999 182.123 0.559999C182.389 0.559999 182.589 0.639999 182.723 0.799998C182.883 0.933331 182.963 1.14667 182.963 1.44V14.36H182.483C183.016 12.68 183.936 11.4267 185.243 10.6C186.549 9.74667 188.056 9.32 189.763 9.32C191.309 9.32 192.589 9.6 193.603 10.16C194.643 10.6933 195.416 11.5067 195.923 12.6C196.429 13.6933 196.683 15.0533 196.683 16.68V28.36C196.683 28.6267 196.603 28.84 196.443 29C196.309 29.16 196.109 29.24 195.843 29.24C195.576 29.24 195.363 29.16 195.203 29C195.069 28.84 195.003 28.6267 195.003 28.36V16.84C195.003 14.7867 194.589 13.28 193.763 12.32C192.936 11.36 191.603 10.88 189.763 10.88C187.709 10.88 186.056 11.52 184.803 12.8C183.576 14.0533 182.963 15.7467 182.963 17.88V28.36C182.963 28.9467 182.683 29.24 182.123 29.24Z" fill="#FF4242"/>
</svg>
